<?xml version="1.0" encoding="utf-8"?>
<!-- Generator: Adobe Illustrator 26.0.1, SVG Export Plug-In . SVG Version: 6.00 Build 0)  -->
<svg version="1.1" id="Outline" xmlns="http://www.w3.org/2000/svg" xmlns:xlink="http://www.w3.org/1999/xlink" x="0px" y="0px"
	 viewBox="0 0 64 64" style="enable-background:new 0 0 64 64;" xml:space="preserve">
<style type="text/css">
	.st0{fill:#CA5D27;}
</style>
<g>
	<path class="st0" d="M32,25c0-1.1,0.9-2,2-2s2,0.9,2,2s-0.9,2-2,2H20v2h14c2.2,0,4-1.8,4-4s-1.8-4-4-4s-4,1.8-4,4H32z"/>
	<path class="st0" d="M49,29c0-2.2-1.8-4-4-4s-4,1.8-4,4h2c0-1.1,0.9-2,2-2s2,0.9,2,2s-0.9,2-2,2H20v2h25C47.2,33,49,31.2,49,29z"/>
	<path class="st0" d="M39,41c-1.1,0-2-0.9-2-2h-2c0,2.2,1.8,4,4,4s4-1.8,4-4s-1.8-4-4-4H20v2h19c1.1,0,2,0.9,2,2S40.1,41,39,41z"/>
	<path class="st0" d="M8,21.9c3.2-7.6,9.8-13.2,17.9-15.2l0.4,1.9l4.5-4l-5.7-1.9l0.4,2c-3.3,0.8-6.4,2.1-9.2,4
		C10.3,12.9,6,19.2,4.6,26.4l2,0.4C6.9,25.1,7.4,23.5,8,21.9z"/>
	<path class="st0" d="M17.5,53.6c-2.8-1.9-5.2-4.3-7-7c-1.7-2.6-3-5.4-3.7-8.4l1.9-0.4l-4-4.5l-1.9,5.7l2-0.4c0.8,3.3,2.1,6.4,4,9.2
		c2,3,4.6,5.5,7.6,7.6c3,2,6.4,3.5,10,4.2l0.4-2C23.4,56.8,20.3,55.5,17.5,53.6L17.5,53.6z"/>
	<path class="st0" d="M56,42.1c-0.7,1.5-1.5,3-2.4,4.4c-1.9,2.8-4.3,5.2-7,7c-1.4,0.9-2.9,1.7-4.4,2.4c-1.3,0.5-2.7,1-4,1.3
		l-0.4-1.9l-4.5,4l5.7,1.9l-0.4-2c3.3-0.8,6.4-2.1,9.2-4c3-2,5.5-4.6,7.6-7.6c2-3,3.5-6.4,4.2-10l-2-0.4
		C57.1,38.9,56.6,40.5,56,42.1z"/>
	<path class="st0" d="M46.5,10.4c4.2,2.8,7.5,6.8,9.4,11.4c0.5,1.3,1,2.7,1.3,4l-1.9,0.4l4,4.5l1.9-5.7l-2,0.4
		c-0.8-3.3-2.1-6.4-4-9.2C51.1,10.3,44.8,6,37.6,4.6l-0.4,2C40.6,7.2,43.7,8.5,46.5,10.4L46.5,10.4z"/>
	<path class="st0" d="M16,27h2v2h-2V27z"/>
	<path class="st0" d="M16,31h2v2h-2V31z"/>
	<path class="st0" d="M16,35h2v2h-2V35z"/>
</g>
</svg>
