<svg width="129" height="129" viewBox="0 0 129 129" fill="none" xmlns="http://www.w3.org/2000/svg">
<path d="M92.8864 84.7094L72.7736 96.4241C72.0043 96.8722 71.2246 97.217 70.4209 97.4612C70.6683 96.9655 70.8708 96.429 71.0251 95.8542C72.0937 91.8646 69.7275 87.7008 65.6378 86.3752C65.5486 86.3463 65.4579 86.3234 65.3655 86.3068C59.6103 85.2688 53.9185 83.2111 49.3451 81.5578C47.7495 80.9809 46.2423 80.4361 44.9583 80.0197C39.6983 78.3133 34.9714 80.4098 31.0401 82.6855L16.3353 91.1991L15.0719 88.9666C13.7023 86.5474 10.6196 85.693 8.20062 87.0621L2.55773 90.2558C0.138235 91.6249 -0.716377 94.7073 0.653188 97.127L17.2438 126.442C17.9057 127.611 18.9858 128.453 20.2859 128.814C20.7356 128.938 21.1917 129 21.6456 129C22.5036 129 23.3504 128.779 24.115 128.346L29.7581 125.152C32.1776 123.783 33.032 120.7 31.6624 118.281L30.0965 115.514L33.1472 113.753L58.789 120.624C60.2363 121.012 61.6763 121.204 63.0927 121.204C65.958 121.204 68.7263 120.415 71.2571 118.857L107.757 96.3822C111.215 94.2532 112.317 88.8979 110.07 85.1463C108.982 83.3297 104.527 77.9302 92.8864 84.7094ZM27.7085 121.531L22.0653 124.725C21.6505 124.96 21.1004 124.808 20.8651 124.392L4.27476 95.0779C4.03965 94.6623 4.1918 94.1128 4.60714 93.8776L10.2503 90.6839C10.3832 90.6087 10.5296 90.5731 10.6753 90.5731C10.985 90.5731 11.2906 90.7341 11.4505 91.0168L28.0411 120.331C28.2762 120.746 28.1241 121.296 27.7085 121.531ZM105.575 92.8389L69.0755 115.314C66.2527 117.052 63.1538 117.486 59.8662 116.604L33.3919 109.51C32.859 109.368 32.291 109.442 31.8133 109.718L28.0471 111.892L18.3855 94.8207L33.1259 86.2865C36.4211 84.3786 39.9805 82.7791 43.6751 83.9775C44.8938 84.3726 46.3011 84.8816 47.9308 85.4706C52.6119 87.163 58.4282 89.2657 64.4745 90.3739C66.4149 91.0628 67.4997 92.9346 67.0058 94.777C66.3554 97.204 64.3146 97.5052 62.6867 97.3205C59.7419 96.714 56.9377 95.9138 53.9708 95.0667C52.5568 94.6628 51.0949 94.2454 49.5911 93.8423C48.4813 93.5453 47.3404 94.2038 47.0429 95.3135C46.7453 96.4233 47.4044 97.5642 48.5141 97.8618C49.9848 98.2558 51.4304 98.6685 52.828 99.0677C55.9034 99.946 58.8082 100.776 61.9416 101.416C61.9552 101.419 61.9684 101.42 61.9819 101.422C61.9962 101.425 62.01 101.429 62.0243 101.432L64.526 101.838C68.3382 102.448 71.7203 101.853 74.868 100.02L94.9808 88.305C100.612 85.0254 104.919 84.6433 106.5 87.2842C107.58 89.0886 107.114 91.8917 105.575 92.8389ZM11.7418 96.0878C11.9028 97.1889 11.1408 98.2118 10.0396 98.3728C8.93872 98.5338 7.91558 97.7718 7.75459 96.6706C7.5936 95.5697 8.35563 94.5466 9.45679 94.3856C10.558 94.2246 11.5808 94.9869 11.7418 96.0878ZM57.5731 28.0527C55.5617 28.0527 53.7937 29.3369 53.1721 31.2503C52.5492 33.1668 53.2277 35.2482 54.8603 36.4298L62.7817 42.1619C62.9619 42.2924 63.0209 42.4734 62.9515 42.6851L59.9117 51.979C59.2857 53.8945 59.9606 55.9771 61.5905 57.161C62.4046 57.7524 63.3577 58.0479 64.3107 58.0479C65.2667 58.0479 66.2227 57.7504 67.0378 57.1558L74.9374 51.3933C75.1174 51.262 75.3078 51.2625 75.4872 51.3933L83.3865 57.1558C85.0149 58.3436 87.2042 58.3454 88.8344 57.1608C90.4643 55.9764 91.1384 53.8937 90.5124 51.9785L87.4729 42.6851C87.4037 42.4734 87.4625 42.2927 87.6427 42.1621L95.5641 36.43C97.1969 35.2488 97.8754 33.1671 97.2525 31.2506C96.6304 29.3369 94.8629 28.0529 92.8515 28.0529C92.8484 28.0529 92.8455 28.0529 92.8424 28.0529L83.0643 28.0717C83.064 28.0717 83.0635 28.0717 83.063 28.0717C82.8409 28.0717 82.688 27.9601 82.6196 27.7484L79.6157 18.4434C78.9967 16.5256 77.2269 15.2371 75.2113 15.2371C73.1965 15.2374 71.4266 16.5258 70.8074 18.4434L67.804 27.7484C67.7354 27.9598 67.5819 28.0717 67.3601 28.0717C67.3596 28.0717 67.359 28.0717 67.3588 28.0717L57.5809 28.0529C57.5794 28.0527 57.5762 28.0527 57.5731 28.0527ZM67.3611 32.2329C69.3764 32.2329 71.1455 30.9455 71.7653 29.0269L74.7689 19.7219C74.8373 19.5105 74.991 19.3984 75.2128 19.3984C75.4349 19.3984 75.5884 19.5099 75.6568 19.7214L78.6607 29.0264C79.2797 30.9455 81.0487 32.2332 83.0646 32.2332H83.0737L92.8518 32.2144H92.8531C93.0747 32.2144 93.2276 32.326 93.2962 32.5369C93.3649 32.7481 93.3061 32.9286 93.1262 33.0589L85.205 38.791C83.5686 39.9746 82.8913 42.0594 83.5192 43.979L86.5584 53.2718C86.6279 53.4833 86.5691 53.664 86.3896 53.7946C86.2102 53.9254 86.0198 53.9246 85.8404 53.7941L77.941 48.0318C76.3101 46.8419 74.1179 46.8419 72.4862 48.0318L64.5866 53.7943C64.4074 53.9254 64.217 53.9251 64.0373 53.7946C63.8579 53.664 63.7991 53.4833 63.8683 53.2723L66.9078 43.979C67.5354 42.0602 66.8584 39.9754 65.2225 38.7913L57.3011 33.0589C57.1211 32.9289 57.0621 32.7481 57.131 32.5364C57.1996 32.3255 57.3528 32.2142 57.5742 32.2142H57.5755L67.3533 32.2329H67.3611ZM73.132 9.69879V2.08062C73.132 0.931596 74.0636 0 75.2126 0C76.3616 0 77.2932 0.931596 77.2932 2.08062V9.69879C77.2932 10.8478 76.3616 11.7794 75.2126 11.7794C74.0636 11.7794 73.132 10.8481 73.132 9.69879ZM92.7953 19.0623C91.9829 18.2499 91.9829 16.9326 92.7953 16.1201L98.1823 10.7331C98.9956 9.92064 100.313 9.9209 101.125 10.7331C101.937 11.5456 101.937 12.8629 101.125 13.6754L95.7379 19.0623C95.3316 19.4686 94.799 19.6717 94.2666 19.6717C93.734 19.672 93.2016 19.4686 92.7953 19.0623ZM49.3008 13.6756C48.4884 12.8631 48.4884 11.5459 49.3008 10.7334C50.1133 9.92116 51.4304 9.92064 52.2434 10.7334L57.6303 16.1204C58.4428 16.9328 58.4428 18.2501 57.6303 19.0626C57.2241 19.4688 56.6917 19.672 56.1591 19.672C55.6267 19.672 55.0941 19.4688 54.6878 19.0626L49.3008 13.6756ZM128.797 50.2326C128.253 48.5569 126.705 47.4326 124.945 47.4326C124.942 47.4326 124.939 47.4326 124.936 47.4326L117.449 47.4469L115.149 40.3216C114.607 38.6425 113.057 37.5145 111.293 37.5145C109.528 37.5148 107.979 38.6428 107.437 40.3216L105.137 47.4469L97.6499 47.4326C97.6468 47.4326 97.6445 47.4326 97.6416 47.4326C95.8809 47.4326 94.3332 48.5566 93.7886 50.2326C93.2435 51.9103 93.8375 53.7327 95.2669 54.767L101.333 59.1563L99.0055 66.2726C98.457 67.9495 99.0473 69.7732 100.475 70.8101C101.187 71.3279 102.022 71.5867 102.856 71.5867C103.694 71.5867 104.531 71.3264 105.244 70.8057L111.293 66.3932L117.342 70.8057C118.768 71.8457 120.685 71.847 122.112 70.8101C123.539 69.7732 124.129 67.9498 123.581 66.2728L121.254 59.1566L127.32 54.7673C128.749 53.7327 129.343 51.9101 128.797 50.2326ZM118.75 55.8318C117.317 56.8682 116.724 58.6937 117.274 60.374L119.52 67.2442L113.681 62.9844C112.252 61.9423 110.333 61.9425 108.905 62.9844L103.066 67.2442L105.312 60.3737C105.862 58.6936 105.269 56.8682 103.836 55.832L97.9802 51.5946L105.209 51.6084H105.216C106.981 51.6084 108.53 50.4812 109.072 48.8014L111.293 41.9226L113.513 48.8016C114.056 50.4815 115.604 51.6086 117.369 51.6086H117.377L124.605 51.5948L118.75 55.8318ZM22.9777 54.767L29.0434 59.1563L26.7163 66.2726C26.1678 67.9495 26.7582 69.7732 28.1855 70.8101C28.8983 71.3282 29.7329 71.587 30.5672 71.587C31.4044 71.587 32.2414 71.3266 32.955 70.8057L39.0041 66.3932L45.0533 70.8057C46.4785 71.8457 48.3955 71.847 49.8228 70.8101C51.2496 69.7732 51.8402 67.9498 51.292 66.2728L48.9648 59.1566L55.0303 54.7673C56.4597 53.7329 57.0537 51.9108 56.5089 50.2323C55.964 48.5569 54.4163 47.4328 52.6561 47.4328C52.6532 47.4328 52.6504 47.4328 52.6475 47.4328L45.1602 47.4471L42.8603 40.3218C42.3183 38.6428 40.7688 37.5148 39.0041 37.5148C37.2398 37.5151 35.6905 38.643 35.1485 40.3218L32.8484 47.4471L25.3615 47.4328C25.3584 47.4328 25.3561 47.4328 25.3532 47.4328C23.5925 47.4328 22.0445 48.5569 21.4999 50.2328C20.9543 51.9103 21.5486 53.7327 22.9777 54.767ZM32.9196 51.6084H32.9274C34.6926 51.6084 36.2416 50.4809 36.7833 48.8014L39.0039 41.9226L41.2242 48.8016C41.7667 50.4815 43.3154 51.6086 45.0801 51.6086H45.0879L52.3162 51.5948L46.46 55.8323C45.0275 56.8687 44.4345 58.6942 44.9843 60.3743L47.2312 67.2445L41.3916 62.9847C40.6775 62.4637 39.8405 62.2031 39.0036 62.2031C38.1667 62.2031 37.3298 62.4637 36.6156 62.9847L30.7761 67.2445L33.0229 60.3743C33.5722 58.6942 32.9792 56.8687 31.547 55.8325L25.6908 51.5951L32.9196 51.6084Z" fill="#CA5D27"/>
</svg>
