<svg width="108" height="129" viewBox="0 0 108 129" fill="none" xmlns="http://www.w3.org/2000/svg">
<path d="M53.8703 27.8047C35.6121 27.8047 20.6953 42.7215 20.6953 60.9797C20.6953 70.5265 24.872 79.7152 31.9128 85.9206C37.1635 91.1713 36.6861 102.389 36.5668 102.508C36.5668 103.105 36.6861 103.582 37.1635 104.059C37.5215 104.417 38.1182 104.656 38.5955 104.656H69.0258C69.6225 104.656 70.0998 104.417 70.4578 104.059C70.8158 103.701 71.0545 103.105 71.0545 102.508C71.0545 102.389 70.4578 91.1713 75.7086 85.9206C75.8279 85.8013 75.9472 85.682 76.0666 85.5626C82.988 79.2379 87.0453 70.2878 87.0453 60.9797C87.0453 42.7215 72.1285 27.8047 53.8703 27.8047ZM72.9639 82.8179C72.8445 82.9373 72.6059 83.1759 72.6059 83.2953C67.9518 88.3073 67.1165 96.5414 66.9971 100.479H40.6242C40.5049 96.5414 39.6695 87.9493 34.6575 82.8179C28.3327 77.3285 24.6334 69.3331 24.6334 60.8604C24.6334 44.7502 37.6408 31.7427 53.751 31.7427C69.8612 31.7427 82.8686 44.7502 82.8686 60.8604C82.8686 69.3331 79.2886 77.3285 72.9639 82.8179Z" fill="#CA5D27"/>
<path d="M53.7474 36.2773C52.6734 36.2773 51.7188 37.232 51.7188 38.306C51.7188 39.38 52.6734 40.3347 53.7474 40.3347C65.8002 40.3347 75.4663 50.1202 75.4663 62.0536C75.4663 63.1276 76.421 64.0823 77.495 64.0823C78.569 64.0823 79.5237 63.1276 79.5237 62.0536C79.643 47.8528 68.0676 36.2773 53.7474 36.2773Z" fill="#CA5D27"/>
<path d="M66.9965 106.924H40.5042C37.7595 106.924 35.4922 109.191 35.4922 111.936C35.4922 114.681 37.7595 116.948 40.5042 116.948H66.8772C69.7412 116.829 72.0086 114.681 72.0086 111.936C72.0086 109.191 69.7412 106.924 66.9965 106.924ZM66.9965 112.771H40.5042C40.0269 112.771 39.5496 112.413 39.5496 111.817C39.5496 111.22 39.9076 110.862 40.5042 110.862H66.8772C67.3545 110.862 67.8319 111.22 67.8319 111.817C67.8319 112.413 67.4739 112.771 66.9965 112.771Z" fill="#CA5D27"/>
<path d="M63.0579 118.977H44.4417C41.697 118.977 39.4297 121.244 39.4297 123.989C39.4297 126.733 41.697 129.001 44.4417 129.001H63.0579C65.8026 129.001 68.07 126.733 68.07 123.989C68.07 121.125 65.8026 118.977 63.0579 118.977ZM63.0579 124.824H44.4417C43.9644 124.824 43.4871 124.466 43.4871 123.869C43.4871 123.273 43.8451 122.915 44.4417 122.915H63.0579C63.5353 122.915 64.0126 123.273 64.0126 123.869C64.0126 124.466 63.5353 124.824 63.0579 124.824Z" fill="#CA5D27"/>
<path d="M53.7474 17.9002C54.9408 17.9002 55.7761 16.9455 55.7761 15.8715V2.02869C55.7761 0.954677 54.8215 0 53.7474 0C52.6734 0 51.7188 0.954677 51.7188 2.02869V15.8715C51.7188 16.9455 52.6734 17.9002 53.7474 17.9002Z" fill="#CA5D27"/>
<path d="M87.525 10.2628C86.5703 9.5468 85.377 9.9048 84.7803 10.7401L77.1429 22.1963C76.4269 23.1509 76.6655 24.4636 77.6202 25.0603C77.9782 25.299 78.3362 25.4183 78.6942 25.4183C79.4102 25.4183 80.0069 25.0603 80.3649 24.4636L88.0023 13.0075C88.7183 12.1722 88.4797 10.8595 87.525 10.2628Z" fill="#CA5D27"/>
<path d="M29.5219 24.9402C29.8799 24.9402 30.2379 24.8208 30.5959 24.5822C31.5506 23.9855 31.7892 22.6728 31.1926 21.7181L23.7938 10.1427C23.1971 9.188 21.8845 8.94933 20.9298 9.546C19.9751 10.1427 19.7364 11.4554 20.3331 12.41L27.7319 23.9855C28.2092 24.7015 28.8059 24.9402 29.5219 24.9402Z" fill="#CA5D27"/>
<path d="M15.0849 37.5903L3.03213 31.0269C2.07746 30.5496 0.764776 30.9076 0.287438 31.8623C-0.309235 32.8169 0.0487682 34.1296 1.12278 34.607L13.1756 41.1704C13.5336 41.2897 13.7722 41.409 14.1302 41.409C14.8463 41.409 15.5623 41.051 15.9203 40.335C16.3976 39.3803 16.0396 38.0677 15.0849 37.5903Z" fill="#CA5D27"/>
<path d="M107.33 31.8623C106.853 30.9076 105.54 30.5496 104.585 31.0269L92.413 37.5903C91.4584 38.0677 91.1004 39.3803 91.5777 40.335C91.9357 41.051 92.6517 41.409 93.3677 41.409C93.7257 41.409 94.0837 41.2897 94.3224 41.1704L106.495 34.607C107.449 34.1296 107.807 32.8169 107.33 31.8623Z" fill="#CA5D27"/>
</svg>
