<svg xmlns="http://www.w3.org/2000/svg" id="Layer_1" viewBox="126.2 224.49 247.59 51.01">
  <defs>
    <style>
      .cls-1 {
        fill: #005d5a;
      }
    </style>
  </defs>
  <path class="cls-1" d="M210.73,268.79l-16.46-41.26c-.45-1.33-1.4-2.28-2.74-2.73-.54-.2-1.09-.3-1.63-.3-.64,0-1.29.14-1.9.42-1.16.53-1.98,1.4-2.43,2.6l-15.62,41.72c-.45,1.2-.41,2.4.11,3.55.53,1.17,1.45,1.99,2.66,2.37.5.16,1.01.24,1.52.24.66,0,1.31-.14,1.95-.4,1.17-.49,2-1.39,2.39-2.6l11.5-30.41,12.04,30.19c.45,1.21,1.31,2.08,2.49,2.54.61.23,1.24.35,1.86.35.52,0,1.05-.08,1.57-.25l.06-.02c1.21-.46,2.07-1.28,2.57-2.46.48-1.16.5-2.34.05-3.55Z"/>
  <path class="cls-1" d="M303.73,266.23h-16.94c-1.9-.1-3.45-.94-4.72-2.55-1.39-1.75-2.44-3.95-3.12-6.54v-.04c-.24-.75-.41-1.49-.52-2.2h18.04c1.28,0,2.38-.46,3.28-1.36.9-.9,1.36-2,1.36-3.28s-.46-2.38-1.36-3.28c-.9-.9-2-1.36-3.28-1.36h-18.08c.05-.37.1-.73.16-1.08.1-.69.28-1.4.53-2.11l.02-.07c.68-2.38,1.72-4.41,3.07-6.03,1.19-1.43,2.63-2.13,4.39-2.13.06,0,.11,0,.2,0h16.97c1.26,0,2.37-.44,3.3-1.32.94-.89,1.42-1.99,1.42-3.27s-.47-2.38-1.4-3.3c-.93-.92-2.05-1.38-3.32-1.38h-18.15v.12c-1.73.12-3.34.49-4.81,1.11-1.78.76-3.39,1.81-4.79,3.15-1.37,1.31-2.57,2.9-3.56,4.72-.97,1.79-1.75,3.76-2.33,5.85-.87,3.07-1.31,6.36-1.31,9.78,0,1.67.09,3.34.26,4.98.17,1.66.5,3.3.96,4.87.53,2.15,1.28,4.21,2.24,6.1.97,1.92,2.16,3.62,3.53,5.05,1.39,1.45,3.01,2.62,4.81,3.5,1.84.89,3.92,1.34,6.17,1.34h16.97c1.26,0,2.38-.45,3.31-1.34.94-.9,1.42-2.01,1.42-3.3s-.48-2.39-1.42-3.3c-.93-.89-2.04-1.34-3.31-1.34Z"/>
  <path class="cls-1" d="M372.43,226.18c-.9-.9-2-1.36-3.28-1.36s-2.38.46-3.28,1.36c-.9.9-1.36,2-1.36,3.28v41.29c0,1.28.46,2.38,1.36,3.28.9.9,2.01,1.36,3.28,1.36s2.38-.46,3.28-1.36c.9-.9,1.36-2,1.36-3.28v-41.29c0-1.27-.46-2.38-1.36-3.28Z"/>
  <path class="cls-1" d="M260.2,225.89c-.9-.9-2-1.36-3.28-1.36s-2.38.46-3.28,1.36c-.9.9-1.36,2.01-1.36,3.28v28.17l-25.11-31.11c-.92-1.12-2.13-1.71-3.5-1.71-.14,0-.27,0-.41.02h-.28c-1.28,0-2.38.46-3.28,1.36-.9.9-1.36,2.01-1.36,3.28v41.29c0,1.28.46,2.38,1.36,3.28.9.9,2,1.36,3.28,1.36s2.38-.46,3.28-1.36c.9-.9,1.36-2,1.36-3.28v-28.85l25.4,31.49.44.43c.89,1.02,2.09,1.56,3.48,1.56,1.28,0,2.38-.46,3.28-1.36.9-.9,1.36-2,1.36-3.28v-41.29c0-1.28-.46-2.38-1.36-3.28Z"/>
  <path class="cls-1" d="M356.28,244.62c.73-1.81,1.1-3.74,1.1-5.74,0-2.12-.4-4.09-1.19-5.84-.98-2.38-2.57-4.41-4.73-6.04-2.2-1.67-5.01-2.51-8.35-2.51h-22.63c-1.27,0-2.37.45-3.27,1.34-.9.89-1.36,1.99-1.36,3.26s.45,2.36,1.34,3.28c.9.93,2.01,1.4,3.29,1.4h23.71c.71.12,1.31.36,1.8.73.77.58,1.29,1.24,1.61,2l.04.08c.31.62.47,1.38.47,2.26s-.14,1.65-.41,2.33c-.37.89-.93,1.6-1.7,2.18-.72.55-1.7.85-2.9.9h-22.61c-1.28,0-2.38.46-3.28,1.36-.9.9-1.36,2-1.36,3.28v21.45c0,1.28.46,2.38,1.36,3.28.9.9,2,1.36,3.28,1.36s2.38-.46,3.28-1.36,1.36-2,1.36-3.28v-16.81h10.4l11.47,19.17c.62,1.08,1.58,1.78,2.86,2.08,1.25.29,2.42.14,3.49-.48,1.12-.67,1.84-1.64,2.14-2.88.3-1.25.11-2.42-.55-3.45l-8.8-14.76c2.31-.43,4.28-1.31,5.88-2.64,1.98-1.64,3.42-3.65,4.27-5.94Z"/>
  <path class="cls-1" d="M160.98,225.85c-.9-.9-2-1.36-3.28-1.36s-2.38.46-3.28,1.36c-.9.9-1.36,2.01-1.36,3.29v16.04h-17.58v-16.04c0-1.28-.46-2.39-1.36-3.29-.9-.9-2.01-1.36-3.28-1.36s-2.38.46-3.28,1.36c-.9.9-1.36,2-1.36,3.28v41.29c0,1.28.46,2.38,1.36,3.28.9.9,2,1.36,3.28,1.36s2.38-.46,3.28-1.36c.9-.9,1.36-2,1.36-3.28v-15.97h17.58v15.97c0,1.28.46,2.38,1.36,3.28.9.9,2.01,1.36,3.28,1.36s2.38-.46,3.28-1.36c.9-.9,1.36-2,1.36-3.28v-41.29c0-1.28-.46-2.38-1.36-3.28Z"/>
</svg>