<svg width="119" height="107" viewBox="0 0 119 107" fill="none" xmlns="http://www.w3.org/2000/svg">
<path d="M116.697 97.6819H112.508V77.1425C114.552 76.5065 116.049 74.6201 116.049 72.3703V48.3516C116.049 45.9443 114.344 43.9306 112.079 43.4458V21.0968H114.57C115.388 21.0968 116.049 20.4351 116.049 19.6174V10.8161C116.049 9.99839 115.388 9.33671 114.57 9.33671H88.2628V1.48171C88.2628 1.02231 88.0491 0.587407 87.6835 0.308563C87.3195 0.0269253 86.8397 -0.0713558 86.4005 0.0529558L36.0547 13.5366C35.4074 13.71 34.9581 14.2951 34.9581 14.9654V21.096C32.4123 21.7578 30.5184 24.0554 30.5184 26.8064V56.9261C30.5184 59.6772 32.4123 61.9748 34.9581 62.6366V97.6819H16.743V88.8692C22.4323 88.1391 26.846 83.277 26.846 77.3922C26.846 71.0051 21.6507 65.8083 15.2635 65.8083C8.87641 65.8083 3.6811 71.0051 3.6811 77.3922C3.6811 83.277 8.09473 88.1391 13.7841 88.8692V97.6819H1.47942C0.661683 97.6819 0 98.3436 0 99.1613V105.245C0 106.063 0.661683 106.725 1.47942 106.725H116.697C117.514 106.725 118.176 106.063 118.176 105.245V99.1613C118.176 98.3436 117.514 97.6819 116.697 97.6819ZM88.2628 12.2956H113.09V18.1381H88.2628V12.2956ZM88.2628 21.0968H109.12V43.3312H88.2628V21.0968ZM87.0103 46.29H111.029C112.166 46.29 113.09 47.2147 113.09 48.3516V72.3703C113.09 73.5073 112.166 74.4319 111.029 74.4319H87.0103C85.8732 74.4319 84.9471 73.5073 84.9471 72.3703V48.3516C84.9471 47.2147 85.8732 46.29 87.0103 46.29ZM37.917 16.101L85.3041 3.40899V43.6496C83.3762 44.3516 81.9884 46.1849 81.9884 48.3516V72.3703C81.9884 75.1383 84.2408 77.3907 87.0103 77.3907H109.55V97.6819H72.4791V74.0245C72.4791 73.2067 71.8175 72.545 70.9997 72.545H45.4859C44.6681 72.545 44.0064 73.2067 44.0064 74.0245V97.6819H37.917V62.8466H66.5587C69.8238 62.8466 72.4791 60.1912 72.4791 56.9261V26.8064C72.4791 23.5413 69.8238 20.8859 66.5587 20.8859H37.917V16.101ZM69.5204 75.5039V97.6819H46.9653V75.5039H69.5204ZM33.4773 56.9261V26.8064C33.4773 25.1739 34.805 23.8447 36.4375 23.8447H66.5587C68.1912 23.8447 69.5204 25.1739 69.5204 26.8064V56.9261C69.5204 58.5587 68.1912 59.8879 66.5587 59.8879H36.4375C34.805 59.8879 33.4773 58.5587 33.4773 56.9261ZM6.63994 77.3922C6.63994 72.6361 10.509 68.7671 15.2635 68.7671C20.0181 68.7671 23.8871 72.6361 23.8871 77.3922C23.8871 81.6415 20.7939 85.1746 16.743 85.8794V82.2088L22.2358 76.9833C22.8281 76.4199 22.8512 75.4837 22.2878 74.8913C21.7243 74.3004 20.7853 74.2788 20.1959 74.8393L15.2756 79.5207L12.3813 76.7001C11.7991 76.1309 10.8585 76.1395 10.2893 76.7262C9.71866 77.3113 9.73021 78.2489 10.3153 78.8181L13.7841 82.1986V85.8794C9.73313 85.1746 6.63994 81.6415 6.63994 77.3922ZM115.217 103.766H2.95872V100.641H115.217V103.766Z" fill="#CA5D27"/>
<path d="M40.8779 53.9653H62.1183C62.936 53.9653 63.5977 53.3036 63.5977 52.4859V31.247C63.5977 30.4293 62.936 29.7676 62.1183 29.7676H40.8779C40.0601 29.7676 39.3984 30.4293 39.3984 31.247V52.4859C39.3984 53.3036 40.0601 53.9653 40.8779 53.9653ZM42.3573 32.7263H60.6388V51.0066H42.3573V32.7263Z" fill="#CA5D27"/>
<path d="M90.5497 70.3095H107.486C108.304 70.3095 108.966 69.6478 108.966 68.8301V51.8935C108.966 51.0757 108.304 50.4141 107.486 50.4141H90.5497C89.732 50.4141 89.0703 51.0757 89.0703 51.8935V68.8301C89.0703 69.6478 89.732 70.3095 90.5497 70.3095ZM92.0292 53.3729H106.007V67.3507H92.0292V53.3729Z" fill="#CA5D27"/>
<path d="M54.2216 84.6716H62.2601C63.0777 84.6716 63.7394 84.0101 63.7394 83.1923C63.7394 82.3746 63.0777 81.7129 62.2601 81.7129H54.2216C53.4039 81.7129 52.7422 82.3746 52.7422 83.1923C52.7422 84.0101 53.4039 84.6716 54.2216 84.6716Z" fill="#CA5D27"/>
<path d="M54.2216 91.4725H62.2601C63.0777 91.4725 63.7394 90.8108 63.7394 89.9931C63.7394 89.1754 63.0777 88.5137 62.2601 88.5137H54.2216C53.4039 88.5137 52.7422 89.1754 52.7422 89.9931C52.7422 90.8108 53.4039 91.4725 54.2216 91.4725Z" fill="#CA5D27"/>
</svg>
